<svg xmlns="http://www.w3.org/2000/svg" viewBox="0 0 24 24" fill="none" stroke="#F472B6" stroke-width="1" stroke-linecap="round" stroke-linejoin="round">
  <path d="M17.79 22L15.36 17.14a1 1 0 0 1 0-.79l1.48-3.39a1 1 0 0 0-.79-1.4H7.6a2 2 0 0 1-1.93-2.65L7.42 4a2 2 0 0 1 1.93-1.35h8.64a2 2 0 0 1 1.75 1.03L22 8.5" fill="#F472B6" opacity="0.2"/>
  <path d="M17.79 22L15.36 17.14a1 1 0 0 1 0-.79l1.48-3.39a1 1 0 0 0-.79-1.4H7.6a2 2 0 0 1-1.93-2.65L7.42 4a2 2 0 0 1 1.93-1.35h8.64a2 2 0 0 1 1.75 1.03L22 8.5"/>
  <path d="M2 14 8 14" stroke-width="2"/>
  <path d="M2 10 8 10" stroke-width="2"/>
  <path d="M2 6 8 6" stroke-width="2"/>
</svg> 